<svg width="110" height="110" viewBox="0 0 110 110" fill="none" xmlns="http://www.w3.org/2000/svg">
<path d="M105.417 38.9585C105.417 35.9196 104.21 33.0051 102.061 30.8562C99.912 28.7074 96.9975 27.5002 93.9585 27.5002H66.4585V16.0418C66.4585 13.0029 65.2513 10.0884 63.1025 7.93956C60.9536 5.79071 58.0391 4.5835 55.0002 4.5835C51.9613 4.5835 49.0468 5.79071 46.8979 7.93956C44.7491 10.0884 43.5419 13.0029 43.5419 16.0418V27.5002H16.0419C13.5489 27.4992 11.1239 28.3132 9.13648 29.8182C7.14904 31.3232 5.7081 33.4367 5.03324 35.8366C4.35838 38.2365 4.4866 40.7913 5.39835 43.1116C6.31011 45.4318 7.95541 47.3904 10.0835 48.6889L17.096 87.2668C17.553 89.7853 18.879 92.0637 20.8429 93.7052C22.8068 95.3467 25.2844 96.2473 27.844 96.2502H39.2152C40.8038 99.0349 43.1008 101.35 45.8731 102.96C48.6454 104.57 51.7943 105.418 55.0002 105.418C58.2062 105.418 61.3551 104.57 64.1273 102.96C66.8996 101.35 69.1966 99.0349 70.7852 96.2502H82.1565C84.7189 96.2523 87.2006 95.3538 89.1678 93.7117C91.1349 92.0697 92.4624 89.7884 92.9181 87.2668L99.9169 48.6889C101.588 47.6715 102.971 46.2431 103.934 44.5398C104.897 42.8365 105.407 40.915 105.417 38.9585ZM48.1252 16.0418C48.1252 14.2185 48.8495 12.4698 50.1388 11.1805C51.4282 9.89116 53.1768 9.16683 55.0002 9.16683C56.8236 9.16683 58.5723 9.89116 59.8616 11.1805C61.1509 12.4698 61.8752 14.2185 61.8752 16.0418V29.7918C61.8752 31.6152 61.1509 33.3639 59.8616 34.6532C58.5723 35.9425 56.8236 36.6668 55.0002 36.6668C53.1768 36.6668 51.4282 35.9425 50.1388 34.6532C48.8495 33.3639 48.1252 31.6152 48.1252 29.7918V16.0418ZM55.0002 100.834C52.2807 100.834 49.6223 100.027 47.3611 98.5162C45.0999 97.0054 43.3376 94.8579 42.2969 92.3454C41.2562 89.8329 40.9839 87.0683 41.5144 84.401C42.045 81.7338 43.3545 79.2838 45.2775 77.3608C47.2005 75.4378 49.6505 74.1283 52.3177 73.5977C54.985 73.0672 57.7496 73.3395 60.2621 74.3802C62.7746 75.4209 64.922 77.1832 66.4329 79.4444C67.9438 81.7056 68.7502 84.364 68.7502 87.0835C68.7502 90.7302 67.3016 94.2276 64.7229 96.8062C62.1443 99.3849 58.6469 100.834 55.0002 100.834ZM88.4127 86.4464C88.1465 87.9116 87.3743 89.2367 86.2309 90.1908C85.0876 91.1448 83.6456 91.6672 82.1565 91.6668H72.6827C73.0954 90.1733 73.3142 88.6329 73.3335 87.0835C73.3335 82.2212 71.402 77.5581 67.9638 74.1199C64.5257 70.6817 59.8625 68.7502 55.0002 68.7502C50.1379 68.7502 45.4748 70.6817 42.0366 74.1199C38.5984 77.5581 36.6669 82.2212 36.6669 87.0835C36.6862 88.6329 36.905 90.1733 37.3177 91.6668H27.844C26.3548 91.6672 24.9128 91.1448 23.7695 90.1908C22.6261 89.2367 21.854 87.9116 21.5877 86.4464L15.0198 50.3114C15.3635 50.3435 15.6935 50.4168 16.0419 50.4168H93.9585C94.3069 50.4168 94.6415 50.3435 94.9806 50.3114L88.4127 86.4464ZM93.9585 45.8335H16.0419C14.2185 45.8335 12.4698 45.1092 11.1805 43.8199C9.89121 42.5305 9.16688 40.7819 9.16688 38.9585C9.16688 37.1351 9.89121 35.3865 11.1805 34.0971C12.4698 32.8078 14.2185 32.0835 16.0419 32.0835H43.7756C44.3016 34.6737 45.7069 37.0025 47.7534 38.6752C49.7999 40.3479 52.3617 41.2617 55.0048 41.2617C57.6479 41.2617 60.2097 40.3479 62.2562 38.6752C64.3027 37.0025 65.708 34.6737 66.234 32.0835H93.9585C95.7819 32.0835 97.5306 32.8078 98.8199 34.0971C100.109 35.3865 100.834 37.1351 100.834 38.9585C100.834 40.7819 100.109 42.5305 98.8199 43.8199C97.5306 45.1092 95.7819 45.8335 93.9585 45.8335Z" fill="#FAA41E"/>
<path d="M59.5833 84.792H50.4167C49.8089 84.792 49.226 85.0334 48.7962 85.4632C48.3664 85.893 48.125 86.4759 48.125 87.0837C48.125 87.6914 48.3664 88.2743 48.7962 88.7041C49.226 89.1339 49.8089 89.3753 50.4167 89.3753H59.5833C60.1911 89.3753 60.774 89.1339 61.2038 88.7041C61.6336 88.2743 61.875 87.6914 61.875 87.0837C61.875 86.4759 61.6336 85.893 61.2038 85.4632C60.774 85.0334 60.1911 84.792 59.5833 84.792Z" fill="#FAA41E"/>
<path d="M80.2087 55C79.6009 55 79.018 55.2414 78.5882 55.6712C78.1584 56.101 77.917 56.6839 77.917 57.2917V80.2083C77.917 80.8161 78.1584 81.399 78.5882 81.8288C79.018 82.2586 79.6009 82.5 80.2087 82.5C80.8164 82.5 81.3993 82.2586 81.8291 81.8288C82.2589 81.399 82.5003 80.8161 82.5003 80.2083V57.2917C82.5003 56.6839 82.2589 56.101 81.8291 55.6712C81.3993 55.2414 80.8164 55 80.2087 55Z" fill="#FAA41E"/>
<path d="M29.7917 55C29.1839 55 28.601 55.2414 28.1712 55.6712C27.7414 56.101 27.5 56.6839 27.5 57.2917V80.2083C27.5 80.8161 27.7414 81.399 28.1712 81.8288C28.601 82.2586 29.1839 82.5 29.7917 82.5C30.3995 82.5 30.9823 82.2586 31.4121 81.8288C31.8419 81.399 32.0833 80.8161 32.0833 80.2083V57.2917C32.0833 56.6839 31.8419 56.101 31.4121 55.6712C30.9823 55.2414 30.3995 55 29.7917 55Z" fill="#FAA41E"/>
<path d="M64.1667 55C63.5589 55 62.976 55.2414 62.5462 55.6712C62.1164 56.101 61.875 56.6839 61.875 57.2917V64.1667C61.875 64.7745 62.1164 65.3574 62.5462 65.7871C62.976 66.2169 63.5589 66.4583 64.1667 66.4583C64.7745 66.4583 65.3574 66.2169 65.7871 65.7871C66.2169 65.3574 66.4583 64.7745 66.4583 64.1667V57.2917C66.4583 56.6839 66.2169 56.101 65.7871 55.6712C65.3574 55.2414 64.7745 55 64.1667 55Z" fill="#FAA41E"/>
<path d="M45.8337 55C45.2259 55 44.643 55.2414 44.2132 55.6712C43.7834 56.101 43.542 56.6839 43.542 57.2917V64.1667C43.542 64.7745 43.7834 65.3574 44.2132 65.7871C44.643 66.2169 45.2259 66.4583 45.8337 66.4583C46.4414 66.4583 47.0243 66.2169 47.4541 65.7871C47.8839 65.3574 48.1253 64.7745 48.1253 64.1667V57.2917C48.1253 56.6839 47.8839 56.101 47.4541 55.6712C47.0243 55.2414 46.4414 55 45.8337 55Z" fill="#FAA41E"/>
</svg>
